<svg width="72" height="72" viewBox="0 0 72 72" fill="none" xmlns="http://www.w3.org/2000/svg">
<rect width="72" height="72" rx="36" fill="#D9D5D5"/>
<path d="M28.2913 56C30.1186 56 31.6 54.5186 31.6 52.6913V45.1911C31.6 43.3637 33.0814 41.8824 34.9087 41.8824H37.0913C38.9186 41.8824 40.4 43.3637 40.4 45.1911V52.6913C40.4 54.5186 41.8814 56 43.7087 56H48.0913C49.9186 56 51.4 54.5186 51.4 52.6913V39.0726C51.4 38.0254 52.2489 37.1765 53.2961 37.1765C55.0028 37.1765 55.8406 35.0979 54.611 33.9143L38.2946 18.2087C37.0134 16.9755 34.9866 16.9755 33.7054 18.2087L17.389 33.9143C16.1594 35.0979 16.9972 37.1765 18.7039 37.1765C19.7511 37.1765 20.6 38.0254 20.6 39.0726V52.6913C20.6 54.5186 22.0814 56 23.9087 56H28.2913Z" fill="black"/>
</svg>
