<svg width="72" height="72" viewBox="0 0 72 72" fill="none" xmlns="http://www.w3.org/2000/svg">
<rect width="72" height="72" rx="36" fill="#E74A4A"/>
<path d="M19.7354 16.2543C17.8163 17.4049 14.0371 21.7905 14 22.9411V24.8518C14 27.2628 16.234 29.3917 18.2603 29.3917C20.695 29.3917 22.7296 27.3504 22.7296 24.9269C22.7296 27.3504 24.6831 29.3917 27.1247 29.3917C29.5593 29.3917 31.4565 27.3504 31.4565 24.9269C31.4565 27.3504 33.5406 29.3917 35.9753 29.3917H36.0192C38.4608 29.3917 40.5435 27.3504 40.5435 24.9269C40.5435 27.3504 42.442 29.3917 44.8767 29.3917C47.3114 29.3917 49.2718 27.3504 49.2718 24.9269C49.2718 27.3504 51.2995 29.3917 53.7328 29.3917C55.766 29.3917 58 27.2628 58 24.8518V22.9411C57.956 21.7905 54.1837 17.4049 52.2577 16.2543C46.2927 16.0375 42.1616 16 36.0041 16C29.8398 16.0069 21.4415 16.1014 19.7437 16.2543H19.7354ZM31.4276 28.2522C31.176 28.6802 30.8983 29.0415 30.5684 29.3597V29.3667C29.6446 30.2713 28.3853 30.8355 26.9954 30.8355C25.5987 30.8355 24.3394 30.2699 23.4225 29.3583C23.0857 29.0318 22.8341 28.6788 22.5976 28.2647C22.3681 28.6774 22.0477 29.0318 21.7109 29.3583C20.7871 30.2699 19.5278 30.8355 18.138 30.8355C18.138 30.8355 18.138 30.8355 18.1311 30.8355C17.9661 30.8355 17.7943 30.7855 17.6513 30.7341C17.4589 32.7976 17.3722 34.7653 17.3434 36.205V36.2119C17.3365 36.9442 17.3365 37.5362 17.3283 38.3686C17.3722 42.6972 16.9062 52.3884 19.2199 54.7702C22.7997 55.6095 29.3875 55.9931 35.9876 56H35.9945C42.6029 55.9931 49.1824 55.6095 52.7622 54.7702C55.0759 52.3898 54.6099 42.6972 54.6539 38.3686C54.647 37.5362 54.647 36.9442 54.6388 36.2119V36.205C54.6099 34.7653 54.5302 32.7976 54.3308 30.7341C54.1947 30.7855 54.016 30.8355 53.851 30.8355H53.8442C52.4543 30.8355 51.195 30.2699 50.2712 29.3583H50.2781C49.9413 29.0318 49.6196 28.6788 49.3914 28.2647H49.3845C49.1549 28.6774 48.8965 29.0318 48.5665 29.3583C47.6496 30.2699 46.3903 30.8355 44.9936 30.8355C43.6037 30.8355 42.3444 30.2699 41.4206 29.3583C41.0907 29.0401 40.8116 28.6705 40.5751 28.2647L40.56 28.2425C40.3236 28.6705 40.0376 29.0387 39.7146 29.3583C38.7907 30.2699 37.5315 30.8355 36.1416 30.8355H36.1347C36.0921 30.8355 36.0412 30.8355 35.9918 30.8286C35.9423 30.8355 35.8914 30.8355 35.8419 30.8355C35.8419 30.8355 35.8419 30.8355 35.835 30.8355C34.4452 30.8355 33.1859 30.2699 32.2703 29.3583C31.9404 29.0401 31.6613 28.6705 31.4331 28.2647L31.418 28.2425L31.4276 28.2522ZM27.7543 33.0519C29.2074 33.0589 30.4969 33.0519 32.0999 34.8181C33.3591 34.6889 34.6775 34.6236 35.9945 34.6236C37.3115 34.6236 38.6299 34.6889 39.8891 34.8181C41.4935 33.0519 42.7816 33.0519 44.2347 33.0519H44.2416C44.929 33.0519 47.6784 33.0519 49.5907 38.4881L51.6459 45.9489C53.1705 51.5004 51.1579 51.6394 48.6531 51.6394C44.9303 51.5004 42.8682 48.7657 42.8682 46.0295C40.8061 46.3783 38.3989 46.5451 35.9945 46.5451C33.5901 46.5451 31.1829 46.3783 29.1277 46.0295C29.1277 48.7657 27.0656 51.5004 23.3427 51.6394C20.8297 51.6324 18.8171 51.5004 20.3417 45.9489L22.3969 38.4881C24.3161 33.0519 27.0655 33.0519 27.7529 33.0519H27.7543ZM35.9959 37.3292C35.989 37.3292 32.0792 40.9699 31.3712 42.2581L33.9338 42.1567V44.4148C33.9338 44.5246 34.9662 44.4801 35.9959 44.4301C37.0256 44.4801 38.0511 44.5246 38.0511 44.4148V42.1567L40.6205 42.2581C39.9125 40.9699 35.9959 37.3292 35.9959 37.3292Z" fill="black"/>
</svg>
