<svg width="55" height="76" viewBox="0 0 55 76" fill="none" xmlns="http://www.w3.org/2000/svg">
<path id="Vector" fill-rule="evenodd" clip-rule="evenodd" d="M54.4071 0.55699C54.3085 0.599481 54.1139 0.82015 53.7595 1.29124C51.1592 4.74813 41.8643 17.807 36.2663 25.8684C30.6075 34.0173 26.7985 39.7239 24.7043 43.1904C23.6782 44.8889 23.4745 45.2515 23.5039 45.3274C23.5162 45.3592 23.6828 45.4408 23.8741 45.509C24.7095 45.8064 26.033 46.4319 27.0374 47.0039C27.9612 47.5299 28.6586 48.0129 30.0063 49.0601C30.3346 49.3152 30.6174 49.5153 30.6346 49.5047C30.6774 49.4785 31.5783 47.952 31.9032 47.3553C32.0479 47.0895 32.441 46.3786 32.7768 45.7756C35.7523 40.4314 41.4866 29.1263 47.4766 16.7947C51.762 7.97222 54.7144 1.78135 54.9506 1.12229C55.048 0.850425 55.0062 0.716275 54.7818 0.580674C54.612 0.478073 54.593 0.476887 54.4071 0.55699ZM22.6057 46.9489C22.5362 47.1 22.2756 47.6981 22.0266 48.2781C21.3119 49.943 20.332 52.0854 18.2582 56.5169C17.0011 59.2033 16.3415 60.6824 16.376 60.7377C16.3867 60.7549 16.5304 60.7938 16.6953 60.8242C17.3598 60.9464 18.1448 61.2855 18.9016 61.7771C19.2152 61.9809 19.5031 62.2242 19.8852 62.6086C20.1823 62.9074 20.4438 63.152 20.4664 63.152C20.5206 63.152 20.8605 62.7261 21.7818 61.5042C22.5155 60.5311 22.9516 59.9396 24.5842 57.7033C26.0951 55.6337 27.6828 53.5211 28.7451 52.1668C29.6061 51.0691 29.7425 50.8783 29.7389 50.7775C29.7371 50.7292 29.5965 50.5853 29.4007 50.4312C27.3053 48.7827 25.9639 47.9449 24.263 47.2224C23.7646 47.0107 22.8513 46.6743 22.775 46.6743C22.7514 46.6743 22.6752 46.7979 22.6057 46.9489ZM14.0246 61.4403C12.4465 61.6857 10.9108 62.5808 10.0043 63.7837C9.39758 64.5888 9.14292 65.1539 8.70257 66.6729C8.29733 68.0707 8.05308 68.7428 7.64004 69.5966C7.12734 70.6565 6.62731 71.345 5.80278 72.1267C4.88457 72.9971 3.80609 73.6103 2.40843 74.0567C2.26212 74.1034 1.71345 74.2489 1.18917 74.38C0.330685 74.5948 0.223834 74.6317 0.114013 74.752C-0.0672789 74.9504 -0.0300806 75.2146 0.209292 75.4293C0.299473 75.5102 0.380919 75.512 2.64128 75.4826C6.67014 75.4304 8.40401 75.3414 10.522 75.0782C13.4985 74.7083 15.5512 74.1748 17.1971 73.3431C19.3856 72.2373 20.6805 70.6969 21.0372 68.7746C21.1439 68.1997 21.1431 66.9288 21.0356 66.3871C20.8591 65.4969 20.4604 64.6037 19.9224 63.8932C19.0241 62.7071 17.599 61.815 16.1047 61.5035C15.6905 61.4171 14.4214 61.3786 14.0246 61.4403Z" fill="black"/>
</svg>
