<svg width="72" height="72" viewBox="0 0 72 72" fill="none" xmlns="http://www.w3.org/2000/svg">
<rect width="72" height="72" rx="36" fill="#ECDB5A"/>
<path d="M46.464 40.8C46.656 39.216 46.8 37.632 46.8 36C46.8 34.368 46.656 32.784 46.464 31.2H54.576C54.96 32.736 55.2 34.344 55.2 36C55.2 37.656 54.96 39.264 54.576 40.8M42.216 54.144C43.656 51.48 44.76 48.6 45.528 45.6H52.608C50.304 49.56 46.632 52.632 42.216 54.144ZM41.616 40.8H30.384C30.144 39.216 30 37.632 30 36C30 34.368 30.144 32.76 30.384 31.2H41.616C41.832 32.76 42 34.368 42 36C42 37.632 41.832 39.216 41.616 40.8ZM36 55.104C34.008 52.224 32.4 49.032 31.416 45.6H40.584C39.6 49.032 37.992 52.224 36 55.104ZM26.4 26.4H19.392C21.672 22.416 25.368 19.344 29.76 17.856C28.32 20.52 27.24 23.4 26.4 26.4ZM19.392 45.6H26.4C27.24 48.6 28.32 51.48 29.76 54.144C25.368 52.632 21.672 49.56 19.392 45.6ZM17.424 40.8C17.04 39.264 16.8 37.656 16.8 36C16.8 34.344 17.04 32.736 17.424 31.2H25.536C25.344 32.784 25.2 34.368 25.2 36C25.2 37.632 25.344 39.216 25.536 40.8M36 16.872C37.992 19.752 39.6 22.968 40.584 26.4H31.416C32.4 22.968 34.008 19.752 36 16.872ZM52.608 26.4H45.528C44.76 23.4 43.656 20.52 42.216 17.856C46.632 19.368 50.304 22.416 52.608 26.4ZM36 12C22.728 12 12 22.8 12 36C12 42.3652 14.5286 48.4697 19.0294 52.9706C21.258 55.1992 23.9038 56.967 26.8156 58.1731C29.7274 59.3792 32.8483 60 36 60C42.3652 60 48.4697 57.4714 52.9706 52.9706C57.4714 48.4697 60 42.3652 60 36C60 32.8483 59.3792 29.7274 58.1731 26.8156C56.967 23.9038 55.1992 21.258 52.9706 19.0294C50.742 16.8008 48.0962 15.033 45.1844 13.8269C42.2726 12.6208 39.1517 12 36 12Z" fill="black"/>
</svg>
