<svg width="72" height="72" viewBox="0 0 72 72" fill="none" xmlns="http://www.w3.org/2000/svg">
<rect width="72" height="72" rx="36" fill="#216EEB"/>
<path fill-rule="evenodd" clip-rule="evenodd" d="M35.0978 8.02014C35.0357 8.02753 34.8243 8.05162 34.6279 8.07376C32.42 8.32229 30.0512 9.40884 28.4444 10.91C28.3617 10.9873 28.1884 11.1495 28.0593 11.2706C27.9301 11.3916 27.6767 11.6622 27.4961 11.8719C25.8521 13.7813 24.9918 15.8114 24.6589 18.5677C24.5813 19.2093 24.5946 21.551 24.6797 22.2259C24.8924 23.9144 25.1784 25.1022 25.8479 27.0766C26.1679 28.0205 26.5297 28.9979 26.8639 29.8209C27.3077 30.9142 27.2281 30.7927 27.5969 30.9395C27.9999 31.0999 28.6649 31.4458 29.0088 31.6738C29.3295 31.8864 29.6785 32.1663 29.6541 32.1912C29.6442 32.2013 29.4274 32.139 29.1725 32.0528C28.3714 31.7818 27.7476 31.6872 27.4036 31.7846C27.234 31.8325 27.0005 32.1134 26.8368 32.466C26.7301 32.6959 26.7252 32.7275 26.7427 33.0789C26.7644 33.516 26.8566 33.8151 27.1925 34.5372C27.4782 35.1517 27.5866 35.4821 27.6557 35.9489C27.7503 36.5887 27.7145 37.1626 27.5379 37.8355C27.2022 39.1142 26.2589 40.2579 25.0759 40.82C24.3863 41.1477 23.8837 41.2591 23.1067 41.2567C22.4882 41.2547 22.1744 41.2032 21.6031 41.0098C20.2404 40.5487 19.084 39.2937 18.7094 37.8697C18.5343 37.2037 18.4863 36.7464 18.4886 35.767C18.4928 34.0043 18.7352 32.8089 19.3934 31.3044C19.5633 30.9159 20.1628 29.717 20.4222 29.2467C20.7287 28.6912 21.3043 27.4883 21.4929 27.0093C22.0623 25.5631 22.1892 24.4215 21.9045 23.305C21.4894 21.677 20.2174 20.2209 18.6532 19.5831C18.0432 19.3345 17.739 19.2791 16.9795 19.2788C16.2337 19.2784 15.9243 19.3265 15.3444 19.5333C13.814 20.0788 12.6771 21.265 12.1606 22.855C11.9269 23.5747 11.9488 24.2879 12.2228 24.8784C12.3543 25.1616 12.6022 25.4464 12.7859 25.5251C13.1852 25.6962 13.7978 25.4658 13.996 25.07C14.1023 24.8577 14.0771 24.6341 13.8913 24.1412C13.7572 23.7857 13.747 23.7305 13.7494 23.3751C13.7524 22.9388 13.8335 22.6438 14.0515 22.2773C14.5078 21.51 15.4581 21.0581 16.3011 21.2076C16.6701 21.2731 16.8702 21.3496 17.1755 21.5417C17.8191 21.9469 18.2128 22.6731 18.2106 23.4509C18.2091 23.965 18.0643 24.543 17.6888 25.5347C17.2034 26.8165 16.6163 27.9925 15.3438 30.2318C15.0804 30.6953 14.7435 31.2986 14.5951 31.5725C13.101 34.3301 12.5242 36.3195 12.5256 38.7111C12.5265 40.3016 12.7518 41.447 13.2765 42.528C13.829 43.6661 14.7626 44.6178 15.9061 45.2083L16.1103 45.3137L16.4321 45.2352C16.6092 45.1921 16.8893 45.1375 17.0547 45.1139C17.2201 45.0904 17.3977 45.0629 17.4494 45.0529C17.5011 45.0429 18.2369 45.0184 19.0846 44.9986C19.9322 44.9787 20.7566 44.9457 20.9165 44.9251C21.186 44.8904 21.678 44.7818 21.7447 44.7423C21.7733 44.7254 21.7104 44.6271 21.5295 44.4058L21.4363 44.2918L21.313 44.4135C21.029 44.6935 20.5137 44.7894 20.0912 44.6409C19.8355 44.5511 19.5494 44.2878 19.4491 44.0502C19.3535 43.8238 19.3 43.4665 19.3616 43.4665C19.385 43.4665 19.4042 43.488 19.4043 43.5144C19.4048 43.6076 19.7051 43.9179 19.8725 43.998C19.9954 44.0569 20.1155 44.0794 20.3073 44.0794C20.6996 44.0794 20.9279 43.94 21.0574 43.6213C21.0834 43.5572 21.1238 43.5048 21.1471 43.5049C21.1705 43.5049 21.2911 43.5673 21.4151 43.6435C22.4679 44.29 22.986 45.5504 22.9249 47.3162C22.8682 48.9558 22.3552 50.4924 21.5843 51.3322C21.0143 51.9532 20.2254 52.2725 19.3654 52.2302C18.6721 52.1962 18.2764 51.8778 18.2764 51.3539C18.2764 51.0722 18.3434 50.8798 18.5076 50.6897C18.7021 50.4645 18.8216 50.4148 19.6274 50.2245C20.5214 50.0133 20.7623 49.9356 21.0392 49.769C21.4686 49.5108 21.7807 49.0748 22.0289 48.3864C22.3869 47.3936 22.4097 46.2299 22.0882 45.3606L22.0308 45.2053L21.7793 45.2909C21.4005 45.4198 20.8357 45.4907 19.8364 45.5346C17.3209 45.6453 16.3368 45.8297 15.2303 46.3976C14.5831 46.7297 14.1715 47.0295 13.7072 47.507C13.0155 48.2183 12.5036 49.2413 12.2553 50.4085C12.1839 50.7445 12.1717 50.9168 12.1724 51.5873C12.173 52.248 12.1861 52.4343 12.2551 52.7613C12.665 54.7048 13.8681 56.2531 15.6258 57.0989C15.9709 57.265 16.4628 57.4256 16.9564 57.5333C17.4888 57.6496 18.6774 57.6595 19.1785 57.5518C19.6696 57.4464 20.2063 57.2681 20.6157 57.0745L20.9873 56.8987L20.9676 56.7616C20.9147 56.3934 20.9049 55.7672 20.9446 55.2838C21.0771 53.6694 21.5784 52.3205 22.5177 51.051C22.8166 50.6471 23.8514 49.6043 24.6275 48.9249C25.3682 48.2765 25.3304 48.3376 25.4348 47.6217C25.5698 46.6958 25.4785 45.5554 25.2056 44.7563C24.9553 44.0235 24.7131 43.6192 24.2381 43.1409C23.8814 42.7818 23.5629 42.5649 23.185 42.4238C22.9297 42.3284 22.9601 42.2912 23.2428 42.353C23.7412 42.4619 24.4258 42.8462 24.7778 43.2145C24.87 43.311 24.9657 43.3899 24.9905 43.3899C25.0626 43.3899 26.1262 42.5621 26.5655 42.1641C27.1855 41.6024 27.7362 40.9283 28.1531 40.2205C28.2616 40.0363 28.3504 39.9087 28.3504 39.937C28.3504 40.0499 28.1109 40.7072 27.951 41.0331C27.8577 41.2232 27.6694 41.5512 27.5326 41.7619C27.2048 42.2667 26.3929 43.0945 25.7855 43.5431C25.4965 43.7566 25.3499 43.8885 25.3597 43.9261C25.368 43.9577 25.4458 44.1474 25.5325 44.3475C25.8611 45.105 25.9969 45.9336 25.9763 47.054C25.9679 47.5107 25.9764 47.7418 26.0011 47.7269C26.033 47.7077 26.528 47.2773 26.5837 47.2204C26.594 47.2098 26.797 47.0264 27.0348 46.8128C28.6675 45.3457 29.8319 43.7627 30.4228 42.2066C30.4858 42.0408 30.4928 42.1453 30.4394 42.4547C30.2662 43.4584 29.8662 44.4671 29.3064 45.3119C28.5927 46.3887 27.9873 46.9928 25.397 49.2123C24.2606 50.1862 23.4064 51.1387 22.9021 51.9947C21.2231 54.8442 21.3891 58.6972 23.3053 61.3543C23.5548 61.7003 24.0976 62.2764 24.4599 62.5798C25.3519 63.3267 26.442 63.7866 27.7354 63.9616C28.1852 64.0225 29.3049 63.9901 29.7788 63.9026C31.16 63.6474 32.3701 63.0047 33.3498 62.0063C34.4795 60.8549 35.1275 59.5508 35.4435 57.7929C35.5392 57.2603 35.5387 55.7965 35.4425 55.3419C35.2036 54.2115 34.5576 53.4039 33.7069 53.1718C33.4526 53.1023 32.9841 53.1058 32.7813 53.1786C32.0656 53.4355 31.9062 54.1766 32.448 54.7287C32.6119 54.8957 32.8696 55.0415 33.1246 55.1115C33.6177 55.2468 33.8107 55.6958 33.8159 56.7203C33.8183 57.1899 33.8055 57.3226 33.733 57.5789C33.4126 58.713 32.5354 59.629 31.4315 59.9823C31.0282 60.1113 30.236 60.1117 29.7976 59.9831C29.2515 59.8229 28.7884 59.5453 28.3836 59.1354C27.7472 58.491 27.4063 57.5834 27.462 56.682C27.5095 55.9149 27.7755 55.3314 28.3675 54.6963C28.8885 54.1372 29.5598 53.6567 30.9441 52.8522C31.8446 52.3288 32.7536 51.7264 33.2371 51.3326C33.6629 50.9858 34.4027 50.2285 34.7095 49.8252C35.1543 49.2407 35.5785 48.492 35.9031 47.7184L35.9915 47.5077L36.0507 47.6418C36.4624 48.5744 36.8911 49.3203 37.3573 49.9151C37.7057 50.3595 38.391 51.046 38.8469 51.4071C39.155 51.6512 39.9385 52.1981 40.1912 52.3454C41.9718 53.3838 42.5763 53.7694 43.1065 54.2049C44.2325 55.1301 44.7 56.1908 44.4991 57.3641C44.2828 58.627 43.4053 59.6309 42.2141 59.9782C41.8672 60.0793 41.2316 60.1169 40.8911 60.0565C39.608 59.8288 38.493 58.7107 38.2146 57.3724C38.1044 56.8427 38.1743 55.9726 38.3602 55.5588C38.4723 55.3091 38.6227 55.1873 38.9558 55.0763C39.6768 54.836 40.0402 54.1925 39.7734 53.6283C39.5092 53.0699 38.521 52.9457 37.7854 53.3785C37.5773 53.501 37.2129 53.8494 37.066 54.0662C36.5959 54.7605 36.3879 55.7748 36.4707 56.9694C36.5528 58.1521 36.7773 59.0381 37.2375 59.9954C38.1929 61.9826 39.7675 63.2943 41.8348 63.825C42.4668 63.9873 43.5694 64.0476 44.2894 63.9594C45.8003 63.7741 47.0993 63.1108 48.1605 61.9826C50.1637 59.8531 50.8041 56.2883 49.7164 53.3217C49.4522 52.6011 48.8859 51.5518 48.7929 51.6104C48.7658 51.6275 48.7603 51.6204 48.7781 51.591C48.8072 51.5432 48.5361 51.1608 48.2188 50.802C48.0541 50.6158 48.0494 50.6134 48.0484 50.7159C48.0476 50.8024 48.0306 50.8212 47.9534 50.8212C47.8649 50.8212 47.8595 50.8092 47.8595 50.6172C47.8595 50.4491 47.8429 50.3973 47.7655 50.3232L47.6715 50.2332V50.5237V50.8141L47.3955 50.817C47.1495 50.8195 47.1101 50.8097 47.0333 50.7263C46.9212 50.6047 46.9161 50.3591 47.0227 50.2149C47.0891 50.125 47.1239 50.1127 47.3097 50.1135C47.426 50.114 47.5211 50.1093 47.5211 50.1031C47.5211 50.0596 47.2048 49.754 47.1775 49.7711C47.1587 49.783 47.148 49.7776 47.1537 49.7591C47.1636 49.727 46.5743 49.174 46.5302 49.174C46.5184 49.174 46.4504 49.1146 46.379 49.0419C46.266 48.9267 46.2432 48.9171 46.2019 48.9678C46.0652 49.1357 45.6573 49.1914 45.3921 49.0785C45.3182 49.0471 45.2422 49.0311 45.2233 49.0431C45.2043 49.055 45.1934 49.048 45.199 49.0275C45.2047 49.007 45.1952 48.9896 45.1778 48.9889C45.1604 48.9882 45.1251 48.9583 45.0995 48.9225C45.0586 48.8656 45.0527 48.8725 45.0527 48.9775C45.0527 49.0434 45.0457 49.1045 45.0371 49.1132C45.0089 49.1416 44.6653 49.1518 44.6648 49.1242C44.6646 49.1095 44.6643 48.8216 44.6643 48.4845V47.8716H44.8381C44.9821 47.8716 45.0044 47.8625 44.9685 47.8184C44.925 47.765 44.7278 47.7065 44.7578 47.7559C44.7666 47.7704 44.7508 47.7823 44.7226 47.7823C44.6945 47.7823 44.6791 47.7621 44.6884 47.7373C44.6977 47.7126 44.6792 47.6703 44.6473 47.6433C44.6129 47.6142 44.5892 47.6104 44.5892 47.6339C44.5892 47.6558 44.6103 47.6824 44.6361 47.6931C44.67 47.707 44.6706 47.7132 44.6384 47.7154C44.5699 47.72 44.54 47.6447 44.5872 47.5867C44.619 47.5477 44.6145 47.5199 44.5686 47.4732C44.5353 47.4391 44.4924 47.4211 44.4733 47.433C44.4544 47.445 44.4388 47.434 44.4388 47.4085C44.4388 47.3463 44.0215 46.9502 43.9821 46.975C43.965 46.9858 43.9621 46.9651 43.9757 46.929C43.9959 46.8754 43.9845 46.8676 43.9135 46.8865C43.8512 46.9031 43.8381 46.8979 43.8671 46.8684C43.8962 46.8388 43.8659 46.7822 43.7606 46.6694C42.5734 45.3974 41.8609 44.0687 41.5851 42.6122C41.5421 42.3847 41.5068 42.1787 41.5068 42.1545C41.5068 42.073 41.5687 42.1791 41.6576 42.4131C42.0939 43.5605 43.0185 44.8969 44.1686 46.0425C44.396 46.269 44.5963 46.4541 44.6138 46.4538C44.6313 46.4534 44.623 46.4386 44.5954 46.4208C44.5547 46.3945 44.556 46.3842 44.6022 46.3661C44.6425 46.3503 44.6553 46.3643 44.6459 46.414C44.6291 46.5029 44.8281 46.7039 44.8926 46.6633C44.9227 46.6444 44.9295 46.6498 44.912 46.6787C44.8955 46.7058 44.9695 46.8024 45.0997 46.9241C45.5013 47.2989 45.4781 47.2856 45.7389 47.2929L45.98 47.2997V46.8841C45.98 45.9463 46.2042 44.8455 46.5296 44.1857C46.5994 44.044 46.6561 43.9147 46.6556 43.8984C46.6551 43.8821 46.5669 43.8084 46.4596 43.7346C46.1482 43.5206 45.4937 42.9651 45.2141 42.6776C44.4857 41.9284 43.9829 41.0972 43.7044 40.1817C43.658 40.029 43.6351 39.904 43.6535 39.904C43.6719 39.904 43.687 39.9184 43.687 39.936C43.687 40.0606 44.3327 41.0005 44.7552 41.491C45.1708 41.9733 46.2958 42.9425 46.8902 43.3303L46.9923 43.3969L47.2404 43.1824C47.7182 42.7694 48.0878 42.554 48.587 42.3979C48.9989 42.2691 49.0925 42.2964 48.7545 42.4468C48.3144 42.6426 48.139 42.7602 47.8118 43.0787C47.4511 43.4297 47.2448 43.7162 47.0219 44.1757C46.6621 44.9174 46.5444 45.4555 46.5172 46.4831C46.505 46.9479 46.5107 47.2588 46.5315 47.2588C46.5507 47.2588 46.5602 47.3148 46.5529 47.3832C46.5455 47.4517 46.5556 47.5767 46.5754 47.661L46.6114 47.8142L46.6152 47.6705L46.619 47.5269H46.7882H46.9573V47.6993V47.8716H47.164H47.3708V48.0249V48.1781H47.1622H46.9536L46.9623 48.3728C46.9702 48.5503 46.9849 48.579 47.1278 48.6984C47.214 48.7704 47.305 48.8293 47.3299 48.8293C47.3548 48.8293 47.3659 48.8447 47.3545 48.8634C47.3432 48.8822 47.3792 48.9278 47.4345 48.9647C47.4899 49.0017 47.5759 49.0812 47.6256 49.1414C47.6753 49.2016 47.7313 49.2412 47.7501 49.2294C47.7689 49.2175 47.7843 49.2338 47.7843 49.2656C47.7843 49.2974 47.8084 49.3372 47.8378 49.3541C47.8673 49.3709 48.0022 49.4937 48.1376 49.627C48.273 49.7603 48.4015 49.8581 48.4233 49.8444C48.445 49.8308 48.4581 49.8424 48.4524 49.8703C48.4468 49.8982 48.4645 49.9163 48.4919 49.9105C48.5193 49.9047 48.5326 49.9149 48.5215 49.9332C48.5105 49.9514 48.5577 50.0219 48.6265 50.0899C48.7282 50.1903 48.7559 50.2022 48.7742 50.1534C48.7867 50.1204 48.8396 50.0934 48.892 50.0934C48.9687 50.0934 48.9871 50.1122 48.9871 50.1903C48.9871 50.2437 48.9619 50.2972 48.931 50.3093C48.9001 50.3214 48.8843 50.347 48.896 50.3662C48.9076 50.3853 48.9371 50.3894 48.9615 50.3752C48.986 50.3609 48.9934 50.3634 48.9781 50.3806C48.9388 50.4247 49.0242 50.5192 49.076 50.489C49.0995 50.4754 49.1065 50.4779 49.0915 50.4948C49.0515 50.5399 49.2861 50.8264 49.3382 50.7961C49.3622 50.7821 49.3697 50.7843 49.355 50.8009C49.3152 50.8458 49.3975 50.9809 49.4459 50.9504C49.4687 50.936 49.4781 50.9399 49.4667 50.9589C49.4422 50.9999 49.7179 51.4015 49.7527 51.3754C49.7658 51.3655 49.7682 51.3688 49.7581 51.3827C49.7479 51.3965 49.7545 51.4267 49.7728 51.4497C49.8579 51.5567 50.3323 52.4549 50.4424 52.7173C50.7127 53.3618 50.9322 54.2033 51.0188 54.9268C51.0453 55.1479 51.0574 55.6225 51.0489 56.1024L51.0347 56.9072L51.3923 57.0794C51.9373 57.3419 52.5414 57.5195 53.1784 57.6045C53.6507 57.6675 54.6201 57.6281 55.0701 57.5276C57.6158 56.9591 59.4583 54.9424 59.7964 52.3543C59.8638 51.8387 59.8635 51.4853 59.7952 50.9361C59.7167 50.3048 59.6749 50.1041 59.526 49.6421C59.329 49.0312 58.7685 47.9897 58.651 48.0163C58.6254 48.022 58.6154 48.0088 58.6287 47.9868C58.6575 47.9394 58.4291 47.6329 58.3855 47.6604C58.369 47.6708 58.3578 47.6509 58.3606 47.6162C58.3694 47.5082 57.679 46.9323 57.17 46.623C56.8364 46.4203 56.3147 46.1828 55.8833 46.0373C54.9933 45.7369 54.2845 45.6357 52.489 45.5523C51.138 45.4896 50.5292 45.4163 50.1542 45.2711L49.9605 45.196L49.921 45.2985C49.8993 45.3548 49.8507 45.513 49.813 45.6499C49.75 45.8785 49.7342 45.9886 49.6839 46.5501C49.6651 46.7599 49.7173 47.3862 49.7812 47.7184C49.8034 47.8343 49.8563 47.9674 49.8986 48.0142C49.9549 48.0764 49.9648 48.1124 49.9357 48.1483C49.9068 48.1838 49.9234 48.2693 49.9959 48.4593L50.096 48.7213L50.1063 48.0092L50.1165 47.2971H50.2848H50.4531L50.4569 47.6322C50.459 47.8166 50.4576 48.0277 50.4538 48.1015L50.4468 48.2356L50.5797 48.1054C50.6528 48.0338 50.7092 47.9571 50.705 47.935C50.7004 47.9105 50.8187 47.889 51.0076 47.8798C51.1781 47.8716 51.3176 47.8793 51.3174 47.897C51.3172 47.9146 51.2665 47.9697 51.2049 48.0194C51.1432 48.069 51.1023 48.1255 51.114 48.1448C51.1257 48.1642 51.1194 48.1753 51.1 48.1695C51.0805 48.1637 50.9934 48.2168 50.9064 48.2875L50.7483 48.4161L50.8317 48.5066C50.8776 48.5564 50.93 48.5877 50.9482 48.5763C50.9664 48.5648 50.9766 48.5707 50.9709 48.5893C50.955 48.6416 51.2133 48.9052 51.2549 48.879C51.2752 48.8662 51.2812 48.8731 51.2684 48.8942C51.2556 48.9154 51.291 48.974 51.3472 49.0246L51.4493 49.1166L51.1916 49.128C50.9787 49.1374 50.9254 49.1275 50.8845 49.0705C50.8573 49.0327 50.8126 49.0009 50.7851 48.9999C50.7576 48.999 50.7384 48.9801 50.7425 48.9579C50.7466 48.9357 50.6843 48.8522 50.6039 48.7723L50.4578 48.6269L50.4632 48.8909C50.4681 49.1326 50.4623 49.1539 50.3951 49.1437C50.3342 49.1345 50.3313 49.1393 50.378 49.1719C50.409 49.1935 50.4218 49.2114 50.4065 49.2118C50.368 49.2126 50.4811 49.3553 50.6572 49.528C50.7643 49.6331 50.8262 49.6668 50.8827 49.6508C50.9363 49.6356 50.9452 49.6396 50.9114 49.6636C50.8737 49.6903 50.8858 49.7143 50.963 49.7659C51.0307 49.8111 51.0552 49.8161 51.0376 49.7813C51.0232 49.7528 51.038 49.763 51.0706 49.8038C51.1031 49.8447 51.1298 49.862 51.1298 49.8421C51.1298 49.8223 51.1784 49.8061 51.2378 49.8061C51.3002 49.8061 51.3391 49.8237 51.33 49.8478C51.3071 49.9085 51.4195 49.991 51.4883 49.964C51.5207 49.9514 51.5378 49.9566 51.5263 49.9755C51.5067 50.0077 51.7681 50.0776 51.8722 50.068C51.898 50.0655 51.9191 50.0763 51.9191 50.0917C51.9191 50.1072 52.0841 50.1585 52.2856 50.2057C53.2303 50.4269 53.3559 50.4835 53.5701 50.7847C53.6276 50.8657 53.6955 51.032 53.7209 51.1543C53.7628 51.3559 53.7597 51.397 53.6871 51.5946C53.5415 51.9907 53.2115 52.1949 52.6618 52.2288C52.0486 52.2667 51.4153 52.098 50.8845 51.7553C50.73 51.6556 50.6035 51.559 50.6035 51.5407C50.6035 51.5223 50.5743 51.5124 50.5385 51.5186C50.5028 51.5248 50.4728 51.5126 50.4719 51.4915C50.4684 51.4158 49.9819 50.8225 49.9227 50.8218C49.8785 50.8214 49.867 50.7954 49.8801 50.7254C49.8976 50.6323 49.8922 50.6297 49.6828 50.6297H49.4676L49.4871 50.5052C49.5107 50.355 49.5262 50.2986 49.5828 50.1579C49.6371 50.023 49.6371 50.0054 49.5828 50.0396C49.5578 50.0553 49.5495 50.0502 49.5633 50.0275C49.5902 49.9832 49.4832 49.6337 49.4427 49.6337C49.4284 49.6337 49.4149 49.6036 49.4126 49.5667C49.4082 49.4946 49.3803 49.3664 49.343 49.2468C49.3303 49.2059 49.2408 49.1315 49.1441 49.0814C48.9596 48.9858 48.7996 48.8032 48.7986 48.6872C48.7983 48.6495 48.7807 48.5928 48.7595 48.5611C48.7252 48.5101 48.7217 48.5101 48.7282 48.5611C48.7394 48.6482 48.6288 48.8763 48.5299 48.9704C48.411 49.0836 48.2636 49.1357 48.0625 49.1357C47.8522 49.1357 47.6833 49.0635 47.5461 48.9147C47.4076 48.7644 47.3648 48.4134 47.4617 48.2224C47.4961 48.1546 47.5125 48.0798 47.4981 48.0561C47.4827 48.0307 47.4888 48.0236 47.513 48.0389C47.5356 48.0531 47.5716 48.0343 47.5929 47.9969C47.6142 47.9596 47.6321 47.9418 47.6328 47.9573C47.6334 47.9728 47.6889 47.9513 47.7561 47.9095C48.1072 47.6914 48.6476 47.9431 48.7133 48.3554L48.7355 48.4951L48.807 48.3C48.8463 48.1926 48.9256 48.0644 48.9833 48.0149L49.0882 47.925L49.0585 47.5057C48.9562 46.0641 49.3729 44.6769 50.1133 43.9942C50.3316 43.7928 50.7673 43.5048 50.8535 43.5048C50.8782 43.5048 50.9169 43.562 50.9396 43.632C50.988 43.7814 51.1794 43.981 51.3295 44.0387C51.3877 44.0611 51.5532 44.0794 51.6973 44.0794C52.0891 44.0794 52.4242 43.8773 52.5688 43.5537C52.691 43.2805 52.6806 43.7358 52.558 44.0266C52.2595 44.7349 51.231 44.9469 50.685 44.4126L50.5599 44.2901L50.4298 44.4433C50.2229 44.6872 50.2096 44.7255 50.3167 44.767C50.7008 44.9158 51.6302 44.9982 52.9341 44.9989C54.1918 44.9997 54.7872 45.0536 55.5509 45.2359L55.8935 45.3178L56.1899 45.1525C56.818 44.8024 57.2813 44.4391 57.7684 43.9146C58.6767 42.9365 59.1791 41.7633 59.4038 40.0956C59.4702 39.6029 59.4707 37.8267 59.4046 37.2992C59.1686 35.415 58.5944 33.7773 57.3965 31.5725C57.2934 31.3829 56.8796 30.6417 56.4767 29.9254C55.377 27.9699 54.8662 26.9482 54.3866 25.7447C53.9347 24.6104 53.7376 23.8267 53.7746 23.3115C53.8281 22.5678 54.27 21.8487 54.9016 21.4774C55.3912 21.1896 56.1338 21.1057 56.6742 21.2773C57.357 21.494 57.8871 22.0169 58.1508 22.7337C58.2279 22.9434 58.2463 23.064 58.2488 23.3751C58.2515 23.7312 58.2418 23.7837 58.1106 24.122C57.8811 24.7139 57.8786 24.9558 58.0993 25.2185C58.3754 25.5472 58.9012 25.6819 59.2336 25.5091C59.5465 25.3464 59.7868 24.963 59.9278 24.4012C60.0303 23.9926 60.0237 23.5685 59.9077 23.1134C59.5182 21.5858 58.4193 20.2873 56.9937 19.67C56.2809 19.3614 55.8532 19.2765 55.0203 19.2781C54.2789 19.2797 54.0239 19.3238 53.3859 19.5611C52.0548 20.0561 50.7687 21.3828 50.2448 22.8012C49.8486 23.8739 49.8395 24.9218 50.2157 26.1905C50.451 26.9842 50.768 27.7039 51.4983 29.1018C52.6997 31.4016 53.0462 32.2332 53.2751 33.3671C53.6246 35.0985 53.6005 36.8876 53.2113 38.101C52.7081 39.6695 51.4109 40.8296 49.7577 41.1894C49.3348 41.2815 48.4375 41.2818 48.0113 41.19C46.1386 40.7866 44.7779 39.4131 44.3771 37.5213C44.3278 37.2885 44.3097 37.0343 44.3096 36.5714C44.3093 35.8163 44.3764 35.4935 44.672 34.8285C45.0681 33.9372 45.1204 33.8056 45.192 33.5205C45.3343 32.9533 45.2743 32.5841 44.9672 32.1385C44.8147 31.9171 44.7488 31.8551 44.6083 31.8005C44.2823 31.6736 43.5311 31.7878 42.6975 32.091C42.5151 32.1574 42.3575 32.2032 42.3474 32.1929C42.3216 32.1666 42.615 31.9221 42.9417 31.6975C43.2184 31.5073 44.1864 31.0107 44.5277 30.8838C44.7009 30.8194 44.7172 30.8009 44.8382 30.5305C45.3628 29.3573 46.3471 26.5941 46.7288 25.2234C46.9984 24.2551 47.1841 23.2947 47.3197 22.1684C47.4162 21.3667 47.4175 19.23 47.3219 18.4719C47.0496 16.311 46.4776 14.678 45.4502 13.1283C43.5376 10.2433 40.5565 8.4163 37.1705 8.05396C36.6838 8.00186 35.4246 7.98133 35.0978 8.02014ZM22.9531 27.0877C22.6974 27.2012 22.5836 27.5092 22.6938 27.7898C22.7473 27.9261 22.7909 27.9643 23.0308 28.0851C23.3937 28.2678 23.4435 28.3653 23.417 28.8402C23.3958 29.2183 23.318 29.4142 22.8643 30.2318C22.4749 30.9335 21.7929 32.3768 21.534 33.0473C21.1497 34.0423 20.8951 34.9816 20.7923 35.7839C20.7339 36.2393 20.7679 37.3769 20.8513 37.7589C21.0201 38.5321 21.3422 39.1568 21.8286 39.654C22.2098 40.0436 22.5113 40.2405 22.9563 40.3903C23.2196 40.4789 23.3201 40.4918 23.7645 40.4936C24.314 40.4958 24.4978 40.4605 25.0337 40.25C25.6819 39.9952 26.356 39.4807 26.7171 38.9649C27.0526 38.4859 27.2582 37.8951 27.2597 37.4065L27.2603 37.188L26.9502 37.2103C25.9705 37.2805 24.8744 36.8683 24.1956 36.1743C23.5328 35.4968 23.3103 34.6577 23.4832 33.4878C23.5513 33.0273 23.6992 32.4476 23.9717 31.5725C24.397 30.2071 24.5108 29.6985 24.5414 29.0252C24.5879 28.0044 24.25 27.354 23.548 27.113C23.2815 27.0215 23.118 27.0145 22.9531 27.0877ZM48.4985 27.094C48.0586 27.2125 47.7232 27.5541 47.5526 28.0573C47.4748 28.287 47.465 28.3841 47.4668 28.9103C47.4695 29.6884 47.5291 29.9584 48.1556 32.0322C48.6231 33.5795 48.6857 34.4701 48.383 35.269C48.2484 35.6245 48.0865 35.8724 47.7906 36.1757C47.1133 36.8702 46.0258 37.2805 45.0487 37.2103L44.7305 37.1874L44.7478 37.521C44.803 38.5813 45.5648 39.587 46.7418 40.153C47.2932 40.4182 47.6342 40.4963 48.2354 40.4949C48.7042 40.4937 48.7678 40.4847 49.0721 40.3757C49.5211 40.2147 49.7782 40.0514 50.1162 39.7125C50.8385 38.9883 51.1854 38.0993 51.231 36.8565C51.297 35.0558 50.6667 33.0855 49.0857 30.1503C48.7386 29.506 48.6382 29.2849 48.5929 29.0657C48.5253 28.7383 48.5236 28.6704 48.5776 28.472C48.6283 28.2859 48.7813 28.1349 48.9809 28.074C49.2113 28.0036 49.3255 27.8406 49.3255 27.5821C49.3255 27.3318 49.2309 27.168 49.0391 27.0864C48.8849 27.0207 48.7642 27.0224 48.4985 27.094ZM29.3125 34.792C29.0944 35.0143 29.1458 35.5789 29.4414 36.2075C29.7244 36.8093 30.0537 37.1484 30.6134 37.4138C30.8854 37.5428 31.2414 37.644 31.4236 37.644C31.5672 37.644 31.7335 37.5018 31.7335 37.379C31.7335 37.1186 31.3892 36.5089 30.9098 35.9203C30.1992 35.0478 29.5273 34.5732 29.3125 34.792ZM42.2744 34.8092C41.6276 35.1395 40.3999 36.6473 40.2799 37.2588C40.2298 37.514 40.3502 37.6445 40.6346 37.6435C40.935 37.6424 41.7062 37.2903 41.9955 37.0222C42.3093 36.7313 42.6269 36.1552 42.7525 35.6489C42.9247 34.9551 42.7138 34.5848 42.2744 34.8092ZM45.4537 47.0289C45.4198 47.0512 45.4152 47.0663 45.4421 47.0666C45.4667 47.067 45.4973 47.05 45.5101 47.0289C45.5389 46.9813 45.5259 46.9813 45.4537 47.0289ZM51.4037 47.3664C51.2898 47.3777 51.2842 47.3852 51.3057 47.5005C51.3397 47.6829 51.3905 47.699 51.4029 47.5312C51.4062 47.4867 51.4241 47.4503 51.4427 47.4503C51.4614 47.4503 51.4693 47.5008 51.4604 47.5626C51.4443 47.6744 51.4447 47.6746 51.5501 47.619C51.612 47.5865 51.656 47.5796 51.656 47.6025C51.656 47.6241 51.6729 47.6418 51.6936 47.6418C51.7143 47.6418 51.7312 47.5815 51.7312 47.5077C51.7312 47.3651 51.638 47.3143 51.6081 47.4407C51.5939 47.501 51.5889 47.5001 51.5584 47.4311C51.5327 47.3732 51.495 47.3574 51.4037 47.3664ZM45.0486 48.3888C45.0547 48.7947 45.0842 48.9184 45.1398 48.7707C45.152 48.7384 45.2042 48.6895 45.256 48.6619C45.3395 48.6172 45.3601 48.6212 45.4404 48.697C45.4901 48.744 45.5743 48.7909 45.6276 48.8013C45.7468 48.8245 45.8735 48.794 45.846 48.7488C45.8348 48.7303 45.8519 48.7255 45.884 48.738C45.975 48.7736 45.9541 48.6639 45.8578 48.6005C45.8113 48.57 45.7593 48.549 45.7423 48.554C45.7252 48.559 45.7211 48.5469 45.733 48.5272C45.7613 48.4805 45.4539 48.25 45.4047 48.2811C45.3839 48.2942 45.3773 48.2877 45.3901 48.2667C45.4028 48.2457 45.3521 48.1698 45.2775 48.098C45.1922 48.0159 45.1506 47.9931 45.1657 48.0364C45.18 48.0775 45.1747 48.096 45.1526 48.0821C45.1321 48.0692 45.1154 48.0338 45.1154 48.0035C45.1154 47.9731 45.0989 47.9483 45.0787 47.9483C45.0565 47.9483 45.0446 48.1231 45.0486 48.3888ZM47.8891 48.2303C47.7677 48.3243 47.7378 48.4793 47.8116 48.6312C47.9689 48.9549 48.4045 48.7904 48.3524 48.4271C48.3232 48.2233 48.0487 48.1068 47.8891 48.2303ZM47.9298 48.3983C47.8831 48.4591 47.8844 48.4604 47.944 48.4128C47.9802 48.3839 48.0098 48.3537 48.0098 48.3458C48.0098 48.3143 47.979 48.3345 47.9298 48.3983ZM48.1978 48.3847C48.1978 48.3929 48.224 48.41 48.2561 48.4226C48.2896 48.4356 48.3046 48.4292 48.2915 48.4075C48.2694 48.3711 48.1978 48.3536 48.1978 48.3847ZM45.6253 48.6265C45.6049 48.6811 45.6092 48.6855 45.6463 48.648C45.672 48.622 45.6836 48.5911 45.672 48.5793C45.6604 48.5675 45.6394 48.5888 45.6253 48.6265ZM44.8456 49.9537C44.7901 49.9843 44.7394 50.0039 44.7328 49.9971C44.7261 49.9904 44.7169 50.0222 44.7123 50.0678C44.7077 50.1135 44.6933 50.223 44.6804 50.3113C44.6461 50.5456 44.7766 50.7737 44.9623 50.8037C45.0362 50.8156 45.1296 50.8324 45.1698 50.8408C45.2101 50.8493 45.2651 50.8377 45.292 50.8149C45.3189 50.7921 45.3409 50.7868 45.3409 50.803C45.3409 50.8191 45.3815 50.7878 45.431 50.7334C45.4805 50.6789 45.5315 50.6417 45.5443 50.6507C45.5571 50.6596 45.5342 50.6296 45.4934 50.5839C45.4159 50.4972 45.3734 50.5046 45.1763 50.639C45.1197 50.6776 45.1024 50.6776 45.0886 50.639C45.0791 50.6125 45.0573 50.5998 45.04 50.6106C44.9966 50.638 44.883 50.5157 44.9023 50.4624C44.911 50.4385 44.9371 50.4233 44.9604 50.4286C45.0201 50.4421 45.0129 50.4177 44.939 50.3566C44.8958 50.3209 44.8845 50.3194 44.9037 50.3519C44.9196 50.379 44.9134 50.3998 44.8896 50.3998C44.8629 50.3998 44.857 50.3679 44.8736 50.3136C44.9033 50.2166 45.0026 50.0589 45.0026 50.1087C45.0026 50.1265 45.0247 50.1225 45.0516 50.0997C45.111 50.0494 45.2747 50.086 45.2407 50.142C45.2269 50.1649 45.2347 50.1704 45.2592 50.155C45.3177 50.1182 45.462 50.2021 45.4301 50.2545C45.4146 50.2802 45.4218 50.2859 45.4485 50.269C45.4727 50.2538 45.4816 50.2234 45.4683 50.2014C45.455 50.1794 45.4674 50.1467 45.4959 50.1287C45.5377 50.1022 45.5316 50.0795 45.4646 50.011C45.3585 49.9027 44.9981 49.8693 44.8456 49.9537ZM45.7074 50.0825L45.6041 50.0985V50.4554C45.6041 50.8056 45.6058 50.8126 45.6981 50.8306C45.7877 50.848 45.792 50.8405 45.792 50.6651C45.792 50.4195 45.8455 50.2849 45.943 50.2849C46.0441 50.2849 46.1232 50.2079 46.103 50.1291C46.0853 50.0602 45.9283 50.0702 45.832 50.1464C45.7885 50.1808 45.7828 50.176 45.8026 50.1221C45.8162 50.0852 45.8236 50.0576 45.819 50.0608C45.8145 50.064 45.7643 50.0737 45.7074 50.0825ZM46.2417 50.1796C46.125 50.2851 46.0994 50.501 46.1833 50.6724C46.2155 50.7383 46.2334 50.8061 46.2231 50.8232C46.2127 50.8403 46.2219 50.8653 46.2434 50.8788C46.2649 50.8924 46.2779 50.8807 46.2722 50.8528C46.2664 50.8241 46.2864 50.8084 46.3183 50.8166C46.443 50.8489 46.7158 50.8131 46.7773 50.7564C46.8507 50.6887 46.8386 50.6496 46.7251 50.5878C46.6803 50.5633 46.6573 50.5615 46.6706 50.5835C46.6959 50.6251 46.6138 50.668 46.509 50.668C46.4725 50.668 46.4109 50.6322 46.3721 50.5885C46.3334 50.5448 46.318 50.5124 46.3381 50.5164C46.3582 50.5205 46.4902 50.5218 46.6314 50.5193L46.8881 50.5147L46.8622 50.3903C46.8201 50.1874 46.7083 50.0934 46.5091 50.0934C46.3841 50.0935 46.311 50.117 46.2417 50.1796ZM46.3773 50.3068C46.2923 50.3934 46.2999 50.3998 46.4874 50.3998C46.607 50.3998 46.6566 50.3842 46.6566 50.3465C46.6566 50.2412 46.468 50.2144 46.3773 50.3068ZM47.2043 50.3068C47.108 50.405 47.1285 50.5852 47.2422 50.638C47.3704 50.6975 47.4612 50.6389 47.4762 50.487C47.4955 50.2916 47.3281 50.1807 47.2043 50.3068ZM45.4061 50.4429C45.4316 50.4691 45.4619 50.4809 45.4735 50.4691C45.4851 50.4573 45.4642 50.4358 45.4271 50.4214C45.3736 50.4007 45.3693 50.405 45.4061 50.4429ZM49.7014 50.4381C49.7014 50.4592 49.7277 50.4764 49.7599 50.4764C49.7922 50.4764 49.8081 50.4592 49.7953 50.4381C49.7825 50.4171 49.7562 50.3998 49.7367 50.3998C49.7173 50.3998 49.7014 50.4171 49.7014 50.4381ZM49.551 51.0488C49.551 51.0686 49.5677 51.0954 49.5882 51.1082C49.6094 51.1216 49.6158 51.1063 49.6029 51.0722C49.5779 51.0058 49.551 50.9937 49.551 51.0488ZM49.9833 51.6256C49.922 51.6525 49.9198 51.659 49.9717 51.6612C50.0066 51.6627 50.0457 51.6467 50.0585 51.6256C50.0852 51.5816 50.0839 51.5816 49.9833 51.6256Z" fill="black"/>
</svg>
